<svg id="SvgjsSvg712949" width="89" height="92" xmlns="http://www.w3.org/2000/svg" version="1.1" xmlns:xlink="http://www.w3.org/1999/xlink" xmlns:svgjs="http://svgjs.com/svgjs" viewBox="-0.0001220703125 0.000244140625 89 91.99935150146484" fill="#bbedff" opacity="1"><defs id="SvgjsDefs712950"></defs><svg version="1.1" xmlns="http://www.w3.org/2000/svg" xmlns:xlink="http://www.w3.org/1999/xlink" width="89" height="92" viewBox="623.249 576.992 87.2469 90.1872"><g><path fill="#bbedff" stroke="none" paint-order="stroke fill markers" fill-rule="evenodd" d=" M 692.4343109130859 648.3976125717163 C 695.6342458724976 644.437313079834 698.4947919845581 639.8871839046478 701.0149955749512 634.7463130950928 C 703.5351991653442 629.6067595481873 705.5153846740723 624.3355810642242 706.9554328918457 618.9351081848145 C 706.9554328918457 618.9351081848145 687.8739595413208 618.9351081848145 687.8739595413208 618.9351081848145 C 685.7935190200806 626.2959718704224 683.3332777023315 632.3163688182831 680.4933547973633 636.9967043399811 C 680.4933547973633 636.9967043399811 663.4520292282104 620.3751802444458 663.4520292282104 620.3751802444458 C 669.6118116378784 616.8152272701263 674.0728616714478 613.064980506897 676.8330335617065 609.1242372989655 C 679.5933246612549 605.1847100257874 680.9734106063843 600.834196805954 680.9734106063843 596.073305606842 C 680.9734106063843 590.2736008167267 678.7428855895996 585.6429159641266 674.2829084396362 582.1822643280029 C 669.8218584060669 578.7226259708405 663.8720035552979 576.9919455051422 656.4314365386963 576.9919455051422 C 648.6308574676514 576.9919455051422 642.3996686935425 578.8521230220795 637.739896774292 582.5723767280579 C 633.0792903900146 586.2927317619324 630.7493448257446 591.1934554576874 630.7493448257446 597.2733318805695 C 630.7493448257446 600.993686914444 631.4291954040527 604.4243454933167 632.7896118164062 607.5642943382263 C 634.1490745544434 610.705155134201 636.3298892974854 613.9950692653656 639.3300294876099 617.4351513385773 C 633.4496736526489 620.7951843738556 629.2989253997803 624.4059026241302 626.879096031189 628.2659888267517 C 624.4583129882812 632.126784324646 623.248815536499 636.7970883846283 623.248815536499 642.2770023345947 C 623.248815536499 649.9184429645538 626.1084079742432 655.978661775589 631.8295001983643 660.4584693908691 C 637.549638748169 664.9390876293182 645.2902555465698 667.1791434288025 655.0513505935669 667.1791434288025 C 664.6914482116699 667.1791434288025 673.3322143554688 664.5190834999084 680.9734106063843 659.1982543468475 C 680.9734106063843 659.1982543468475 687.8739595413208 665.9788131713867 687.8739595413208 665.9788131713867 C 687.8739595413208 665.9788131713867 710.4957103729248 665.9788131713867 710.4957103729248 665.9788131713867 C 710.4957103729248 665.9788131713867 692.4343109130859 648.3976125717163 692.4343109130859 648.3976125717163 Z M 644.5205211639404 633.8764131069183 C 645.8603143692017 631.956148147583 647.6904153823853 630.1168441772461 650.0109434127808 628.3559679985046 C 650.0109434127808 628.3559679985046 669.93248462677 648.1575667858124 669.93248462677 648.1575667858124 C 665.8915281295776 650.5981504917145 661.3517999649048 651.8178343772888 656.3113927841187 651.8178343772888 C 652.2704362869263 651.8178343772888 648.9608287811279 650.7977664470673 646.3806629180908 648.7576305866241 C 643.8003778457642 646.717494726181 642.5102949142456 643.977689743042 642.5102949142456 640.5369997024536 C 642.5102949142456 638.0167722702026 643.1797742843628 635.7965767383575 644.5205211639404 633.8764131069183 Z M 661.2918376922607 604.5040905475616 C 659.4513654708862 606.3642680644989 656.8111181259155 608.254337310791 653.3712148666382 610.1745009422302 C 649.5702266693115 605.9348404407501 647.6707458496094 602.0541846752167 647.6707458496094 598.533445596695 C 647.6707458496094 596.173620223999 648.4404802322388 594.3538725376129 649.980902671814 593.0731892585754 C 651.5203714370728 591.793417930603 653.6308526992798 591.1529242992401 656.3113927841187 591.1529242992401 C 658.591628074646 591.1529242992401 660.4517698287964 591.7632222175598 661.8918180465698 592.9832100868225 C 663.3319854736328 594.2038059234619 664.0520095825195 595.8736896514893 664.0520095825195 597.9935705661774 C 664.0520095825195 600.4742801189423 663.1313562393188 602.6439130306244 661.2918376922607 604.5040905475616 Z"></path></g></svg></svg>