<svg id="SvgjsSvg493593" width="24" height="41" xmlns="http://www.w3.org/2000/svg" version="1.1" xmlns:xlink="http://www.w3.org/1999/xlink" xmlns:svgjs="http://svgjs.com/svgjs" viewBox="0.21246337890625 0 23.57503318786621 41" fill="#d4d4d4" opacity="1"><defs id="SvgjsDefs493594"></defs><svg version="1.1" xmlns="http://www.w3.org/2000/svg" xmlns:xlink="http://www.w3.org/1999/xlink" width="24" height="41" viewBox="1.00001 1.00007 23.0001 40.0001"><g><path fill="#d4d4d4" stroke="none" paint-order="stroke fill markers" fill-rule="evenodd" d=" M 2.0023231506347656 6.02410626411438 C 2.0023231506347656 6.02410626411438 17.065608978271484 20.99368166923523 17.065608978271484 20.99368166923523 C 17.065608978271484 20.99368166923523 1.805389404296875 36.15922522544861 1.805389404296875 36.15922522544861 C 1.805389404296875 36.15922522544861 1.8061046600341797 36.16013717651367 1.8061046600341797 36.16013717651367 C 1.307332992553711 36.673869609832764 1.0000114440917969 37.37262678146362 1.0000114440917969 38.143022775650024 C 1.0000114440917969 39.72100210189819 2.2873525619506836 41.0001654624939 3.8749818801879883 41.0001654624939 C 4.650199890136719 41.0001654624939 5.353296279907227 40.69466185569763 5.870306968688965 40.19896578788757 C 5.870306968688965 40.19896578788757 5.87114143371582 40.19987773895264 5.87114143371582 40.19987773895264 C 5.87114143371582 40.19987773895264 23.12120246887207 23.056920289993286 23.12120246887207 23.056920289993286 C 23.12120246887207 23.056920289993286 23.120368003845215 23.05621099472046 23.120368003845215 23.05621099472046 C 23.662412643432617 22.536601543426514 24.00013256072998 21.80764865875244 24.00013256072998 20.999963998794556 C 24.00013256072998 20.99803876876831 23.99989414215088 20.99591088294983 23.99989414215088 20.99368166923523 C 23.99989414215088 20.991553783416748 24.00013256072998 20.989628553390503 24.00013256072998 20.98750066757202 C 24.00013256072998 20.179816007614136 23.662412643432617 19.451167106628418 23.120368003845215 18.931456327438354 C 23.120368003845215 18.931456327438354 23.12120246887207 18.93054437637329 23.12120246887207 18.93054437637329 C 23.12120246887207 18.93054437637329 5.87114143371582 1.7874855995178223 5.87114143371582 1.7874855995178223 C 5.87114143371582 1.7874855995178223 5.863750457763672 1.7949838638305664 5.863750457763672 1.7949838638305664 C 5.3473358154296875 1.3030369281768799 4.646981239318848 1.0000665187835693 3.8749818801879883 1.0000665187835693 C 2.2873525619506836 1.0000665187835693 1.0000114440917969 2.2791285514831543 1.0000114440917969 3.8572092056274414 C 1.0000114440917969 4.724069356918335 1.388991355895996 5.500038385391235 2.0023231506347656 6.02410626411438 Z"></path></g></svg></svg>