<?xml version="1.0" encoding="iso-8859-1"?>
<!-- Generator: Adobe Illustrator 19.0.0, SVG Export Plug-In . SVG Version: 6.00 Build 0)  -->
<svg version="1.1" id="Layer_1" xmlns="http://www.w3.org/2000/svg" xmlns:xlink="http://www.w3.org/1999/xlink" x="0px" y="0px"
	 viewBox="0 0 512.001 512.001" style="enable-background:new 0 0 512.001 512.001;" xml:space="preserve">
<g>
	<g>
		<path d="M305.898,133.482c-36.801,0-66.741,29.94-66.741,66.741c0,36.801,29.94,66.741,66.741,66.741
			c36.801,0,66.741-29.94,66.741-66.741C372.639,163.422,342.699,133.482,305.898,133.482z M305.898,233.594
			c-18.401,0-33.371-14.97-33.371-33.371s14.97-33.371,33.371-33.371s33.371,14.97,33.371,33.371S324.298,233.594,305.898,233.594z"
			/>
	</g>
</g>
<g>
	<g>
		<path d="M139.045,133.482c-36.801,0-66.741,29.94-66.741,66.741c0,36.801,29.94,66.741,66.741,66.741
			c36.801,0,66.741-29.94,66.741-66.741C205.786,163.422,175.846,133.482,139.045,133.482z M139.045,233.594
			c-18.401,0-33.371-14.97-33.371-33.371c0-18.401,14.97-33.371,33.371-33.371c18.401,0,33.371,14.97,33.371,33.371
			S157.446,233.594,139.045,233.594z"/>
	</g>
</g>
<g>
	<g>
		<path d="M492.624,474.589c8.984-13.532,13.814-29.402,13.814-46.016c0.001-22.284-8.676-43.234-24.434-58.99
			c-9.943-9.944-26.135-17.203-49.12-21.962c4.309-17.199,6.496-34.9,6.496-52.848v-77.866C439.38,97.305,342.075,0,222.472,0
			S5.563,97.305,5.563,216.907v77.866c0,119.603,97.305,216.909,216.909,216.909c46.938,0,91.953-14.99,129.154-42.624
			c3.537,7.624,7.662,13.774,12.396,18.508c15.758,15.758,36.708,24.435,58.991,24.435c16.614,0,32.484-4.83,46.016-13.814
			l8.526,8.526c6.516,6.516,17.08,6.516,23.596,0c6.516-6.515,6.516-17.08,0-23.596L492.624,474.589z M351.777,341.105
			c-8.864,0.238-15.993,7.367-16.231,16.231c-0.027,0.981-0.615,24.352,2.101,51.336c0.95,9.429,2.17,18.073,3.665,25.969
			c-33.166,28.225-75.01,43.67-118.84,43.67c-101.203,0-183.538-82.335-183.538-183.538v-77.866
			c0-101.202,82.335-183.537,183.538-183.537S406.01,115.706,406.01,216.907v77.866c0,16.375-2.146,32.5-6.373,48.101
			C374.151,340.542,352.716,341.078,351.777,341.105z M468.198,450.162l-33.386-33.386c-6.515-6.515-17.08-6.515-23.596,0
			s-6.516,17.08,0,23.596l33.386,33.386c-18.228,8.725-41.282,5.911-56.984-9.79c-14.643-14.643-18.264-68.826-18.726-89.524
			c20.923,0.458,74.748,3.967,89.517,18.735C474.103,408.874,476.926,431.928,468.198,450.162z"/>
	</g>
</g>
<g>
	<g>
		<path d="M239.157,300.335h-33.371c-36.801,0-66.741,29.94-66.741,66.741s29.94,66.741,66.741,66.741h33.371
			c36.801,0,66.741-29.94,66.741-66.741S275.958,300.335,239.157,300.335z M239.157,400.447h-33.371
			c-18.401,0-33.371-14.97-33.371-33.371s14.97-33.371,33.371-33.371h33.371c18.4,0,33.371,14.97,33.371,33.371
			S257.557,400.447,239.157,400.447z"/>
	</g>
</g>
<g>
</g>
<g>
</g>
<g>
</g>
<g>
</g>
<g>
</g>
<g>
</g>
<g>
</g>
<g>
</g>
<g>
</g>
<g>
</g>
<g>
</g>
<g>
</g>
<g>
</g>
<g>
</g>
<g>
</g>
</svg>
