<svg id="SvgjsSvg447521" width="33" height="30" xmlns="http://www.w3.org/2000/svg" version="1.1" xmlns:xlink="http://www.w3.org/1999/xlink" xmlns:svgjs="http://svgjs.com/svgjs" viewBox="0 0.5845947265625 33 28.83089256286621" fill="#cc9800" opacity="1"><defs id="SvgjsDefs447522"></defs><svg version="1.1" xmlns="http://www.w3.org/2000/svg" xmlns:xlink="http://www.w3.org/1999/xlink" width="33" height="30" viewBox="2.00602 2.35325 31.9954 27.9532"><g><path fill="#cc9800" stroke="none" paint-order="stroke fill markers" fill-rule="evenodd" d=" M 31.19566822052002 5.111703872680664 C 27.56586456298828 1.5215551853179932 21.763948440551758 1.4465725421905518 18.003610610961914 4.824033975601196 C 14.243749618530273 1.4465725421905518 8.442787170410156 1.5215551853179932 4.81179141998291 5.111703872680664 C 1.070765495300293 8.809969425201416 1.070765495300293 14.805439710617065 4.81179141998291 18.50461721420288 C 5.88145637512207 19.56166982650757 15.864876747131348 29.42979097366333 15.864876747131348 29.42979097366333 C 17.04755210876465 30.59870958328247 18.960503578186035 30.59870958328247 20.143059730529785 29.42979097366333 C 20.143059730529785 29.42979097366333 31.074432373046875 18.624792098999023 31.19566822052002 18.50461721420288 C 34.93669414520264 14.805439710617065 34.93669414520264 8.809969425201416 31.19566822052002 5.111703872680664 Z M 29.768733024597168 17.094639539718628 C 29.768733024597168 17.094639539718628 18.716243743896484 28.019914627075195 18.716243743896484 28.019914627075195 C 18.32368755340576 28.409115076065063 17.68281841278076 28.409115076065063 17.291215896606445 28.019914627075195 C 17.291215896606445 28.019914627075195 6.238726615905762 17.094639539718628 6.238726615905762 17.094639539718628 C 3.2885351181030273 14.179638624191284 3.2885351181030273 9.436074495315552 6.238726615905762 6.520668268203735 C 9.0825834274292 3.709629774093628 13.654736518859863 3.6112403869628906 16.64796257019043 6.299368143081665 C 16.64796257019043 6.299368143081665 18.003610610961914 7.517126798629761 18.003610610961914 7.517126798629761 C 18.003610610961914 7.517126798629761 19.3597354888916 6.299368143081665 19.3597354888916 6.299368143081665 C 22.352961540222168 3.6112403869628906 26.92618751525879 3.709629774093628 29.768733024597168 6.520668268203735 C 32.719162940979004 9.436074495315552 32.719162940979004 14.179638624191284 29.768733024597168 17.094639539718628 Z M 11.255411148071289 7.344565391540527 C 11.253503799438477 7.344565391540527 11.253503799438477 7.345578670501709 11.251238822937012 7.345578670501709 C 8.906868934631348 7.347402572631836 7.005361557006836 9.245882034301758 7.005361557006836 11.587975025177002 C 7.005361557006836 11.587975025177002 7.005361557006836 11.587975025177002 7.005361557006836 11.587975025177002 C 7.005361557006836 11.863890886306763 7.228878974914551 12.087116241455078 7.5053253173828125 12.087116241455078 C 7.781890869140625 12.087116241455078 8.00540828704834 11.863890886306763 8.00540828704834 11.587975025177002 C 8.00540828704834 11.587975025177002 8.00540828704834 11.587063074111938 8.00540828704834 11.587063074111938 C 8.00540828704834 9.795788526535034 9.460596084594727 8.34284782409668 11.254338264465332 8.34284782409668 C 11.254338264465332 8.34284782409668 11.255411148071289 8.34284782409668 11.255411148071289 8.34284782409668 C 11.53185749053955 8.34284782409668 11.755374908447266 8.119622468948364 11.755374908447266 7.8437066078186035 C 11.755374908447266 7.567892074584961 11.53185749053955 7.344565391540527 11.255411148071289 7.344565391540527 Z"></path></g></svg></svg>